<svg xmlns="http://www.w3.org/2000/svg" width="400" height="400">
  <defs>
    <linearGradient id="grad1" x1="0%" y1="0%" x2="100%" y2="100%">
      <stop offset="0%" stop-color="#7cc" />
      <stop offset="50%" stop-color="#567" />
      <stop offset="100%" stop-color="#423" />
    </linearGradient>
    
     <linearGradient id="grad2" x1="0%" y1="0%" x2="100%" y2="100%">
      <stop offset="0%" stop-color="#f63" />
      <stop offset="100%" stop-color="#634" />
    </linearGradient>
    
     <linearGradient id="grad3" x1="0%" y1="0%" x2="100%" y2="0%">
      <stop offset="0%" stop-color="#cd5" />
      <stop offset="25%" stop-color="#df5" />
      <stop offset="50%" stop-color="#fc5" />
      <stop offset="100%" stop-color="#862" />
    </linearGradient>
    
    <linearGradient id="grad4" x1="0%" y1="0%" x2="100%" y2="0%">
      <stop offset="0%" stop-color="#cd5" />
      <stop offset="25%" stop-color="#df5" />
      <stop offset="50%" stop-color="#fa5" />
      <stop offset="100%" stop-color="#846" />
    </linearGradient>
    
    <linearGradient id="grad5" x1="0%" y1="0%" x2="0%" y2="100%">
      <stop offset="0%" stop-color="#f76" />
      <stop offset="50%" stop-color="#d05" />
      <stop offset="100%" stop-color="#f65" />
    </linearGradient>
    
   <linearGradient id="grad6" x1="0%" y1="0%" x2="0%" y2="100%">
      <stop offset="0%" stop-color="#f78" />
      <stop offset="40%" stop-color="#d42" />
      <stop offset="60%" stop-color="#f63" />
      <stop offset="100%" stop-color="#f50" />
    </linearGradient>    
    
    
    <linearGradient id="grad7" x1="0%" y1="0%" x2="0%" y2="100%">
      <stop offset="0%" stop-color="#fb8" />
      <stop offset="100%" stop-color="#d40" />
    </linearGradient> 
    
     <filter id="blur" width="250%" height="250%">
      <feOffset result="offOut" in="SourceGraphic" dx="7" dy="15"/>
      <feColorMatrix result="matrixOut" in="offOut" type="matrix"
        values = "0.1 0 0 0 0 0 0.03 0 0 0 0 0 0.3 0 0 0 0 0 0.8 0"/>
      <feGaussianBlur result="blurOut" in="matrixOut" 
                      stdDeviation="15"/>
      <feBlend in="SourceGraphic" in2="blurOut" mode="normal"/>
    </filter>
   
   
  </defs>

  <g transform="translate(200,200)">

      <polygon fill="url(#grad1)" filter="url(#blur)" points="-100,-100 -100,100 100,100 100,-100"/>
      
      <polygon fill="url(#grad2)" points="70,140 70,-140 -180,0"/>
      
  
    <g transform="translate(0,-5)">
      <polygon fill="url(#grad3)" filter="url(#blur)" points="-140,-50 -120,-20 120,-20 140,-60"/>
    </g>
    
    <g transform="translate(-30,-5)">  
      <polygon fill="url(#grad5)" filter="url(#blur)" points="0,-150 115,-40 85,0 0,-100"/>
    </g>
      
    <g transform="translate(-30,-5)">
      <polygon fill="url(#grad6)" filter="url(#blur)" points="0,-90 40,-45 30,130 0,160"/>
    </g>

    <g transform="translate(0,5)">
      <polygon fill="url(#grad4)" filter="url(#blur)" points="-140,50 -120,20 120,20 140,60"/>
    </g>
      
    <g transform="translate(-30,-5)">
      <polygon fill="url(#grad7)" filter="url(#blur)" points="33,130 150,5 120,-35 40,60"/>
    </g>

  </g>
</svg>